# xmcd CD database file
#
# Track frame offsets:
#	150
#	22500
#	39225
#	61500
#
# Disc length: 1038 seconds
#
# Revision: 0
# Processed by: cddbd v1.5PL3 Copyright (c) Steve Scherf et al.
# Submitted via: CDex 1.51
#
DISCID=19040c04
DTITLE=上原多香子 - Air
DYEAR=2002
DGENRE=JPop
TTITLE0=Air
TTITLE1=沈まない太陽
TTITLE2=Air (Instrumental)
TTITLE3=沈まない太陽 (Instrumental)
EXTD=YEAR: 2002
EXTT0=
EXTT1=
EXTT2=
EXTT3=
PLAYORDER=
